<svg width="1177" height="3285" viewBox="0 0 1177 3285" fill="none" xmlns="http://www.w3.org/2000/svg">
<path d="M142.902 1.72656C83.7715 125.162 3.90188 316.185 142.902 531.646C281.902 747.106 691.597 656.338 614.876 575.139C542.133 498.151 469.297 825.998 572.873 945.583C676.45 1065.17 827.454 1085.86 977.298 1122.56C1127.14 1159.25 1192.38 1360.26 1084.1 1485.27C949.24 1640.98 640.857 1569.99 640.857 1738.96C640.857 1885.86 1188.14 1881.87 1172.68 2208.28C1149.7 2693.27 501.428 2068.91 236.432 2208.28C-6.1717 2335.88 124.717 2625.33 190.1 2549.84C263.841 2464.7 30.8272 2400.76 5.55872 2741.5C-19.7097 3082.24 268.338 2824.65 427.362 2953.3C507.058 3017.77 515.313 3220.46 508.765 3283.73" stroke="#12F96B" stroke-width="8"/>
</svg>
